<svg xmlns="http://www.w3.org/2000/svg" viewBox="0 0 64 64">
  <!-- Background with a dark color for contrast -->
  <rect width="64" height="64" rx="16" fill="rgba(0, 0, 0, 0.8)" />

  <!-- Double S symbol moved to the left -->
  <path d="M14,20 C9,25, 9,35, 14,40 C19,45, 29,45, 34,40 C39,35, 39,25, 34,20 C29,15, 19,15, 14,20 Z" fill="url(#grad1)" />
  <path d="M28,20 C23,25, 23,35, 28,40 C33,45, 43,45, 48,40 C53,35, 53,25, 48,20 C43,15, 33,15, 28,20 Z" fill="url(#grad2)" />

  <!-- Gradient definitions for smooth color transition -->
  <defs>
    <linearGradient id="grad1" x1="0%" y1="0%" x2="100%" y2="100%">
      <stop offset="0%" style="stop-color:#FF4DA8;stop-opacity:1" />
      <stop offset="100%" style="stop-color:#FF7A00;stop-opacity:1" />
    </linearGradient>
    <linearGradient id="grad2" x1="0%" y1="0%" x2="100%" y2="100%">
      <stop offset="0%" style="stop-color:#7A00FF;stop-opacity:1" />
      <stop offset="100%" style="stop-color:#FF4DFF;stop-opacity:1" />
    </linearGradient>
  </defs>

  <!-- Optional shadow effect to add depth -->
  <circle cx="32" cy="32" r="31" fill="none" stroke="rgba(0, 0, 0, 0.3)" stroke-width="2" />
</svg>
