<svg xmlns="http://www.w3.org/2000/svg" viewBox="0 0 64 64">
  <!-- Background -->
  <rect width="64" height="64" rx="12" fill="#000000" />
  
  <!-- "S" shape as a path instead of text, with fixed gradient fill -->
  <path d="M22.5 18c-4.4 0-8 3.6-8 8 0 3.1 1.8 5.8 4.5 7.1-2.7 1.3-4.5 4-4.5 7.1 0 4.4 3.6 8 8 8h18c1.1 0 2-0.9 2-2s-0.9-2-2-2h-18c-2.2 0-4-1.8-4-4s1.8-4 4-4h14c4.4 0 8-3.6 8-8s-3.6-8-8-8h-14zm0 4h14c2.2 0 4 1.8 4 4s-1.8 4-4 4h-14c-2.2 0-4-1.8-4-4s1.8-4 4-4z" fill="url(#gradient)" />
  
  <!-- Define gradient but with absolute coordinates -->
  <defs>
    <linearGradient id="gradient" x1="14.5" y1="18" x2="44.5" y2="48">
      <stop offset="0%" stop-color="#25F4EE" />
      <stop offset="100%" stop-color="#FE2C55" />
    </linearGradient>
  </defs>
</svg> 